<?xml version="1.0" standalone="no"?>
<!DOCTYPE svg PUBLIC "-//W3C//DTD SVG 1.1//EN" "http://www.w3.org/Graphics/SVG/1.1/DTD/svg11.dtd">
<!--Generator: Xara Designer (www.xara.com), SVG filter version: 6.6.0.8-->
<svg fill="none" fill-rule="evenodd" stroke="black" stroke-width="0.501" stroke-linejoin="bevel" stroke-miterlimit="10" font-family="Times New Roman" font-size="16" style="font-variant-ligatures:none" xmlns:xlink="http://www.w3.org/1999/xlink" xmlns="http://www.w3.org/2000/svg" version="1.1" overflow="visible" width="1299.75pt" height="334.5pt" viewBox="0 -334.5 1299.75 334.5">
 <defs>
  <linearGradient id="LinearGradient" gradientUnits="userSpaceOnUse" x1="0" y1="0" x2="164.715" y2="0" gradientTransform="translate(786.346 249.594) rotate(-89.889) skewX(0.108649)">
   <stop offset="0" stop-color="#151c2e"/>
   <stop offset="1" stop-color="#111828"/>
  </linearGradient>
  <linearGradient id="LinearGradient_1" gradientUnits="userSpaceOnUse" x1="0" y1="0" x2="-4.658" y2="313.789" gradientTransform="translate(148.276 -226.358)">
   <stop offset="0" stop-color="#ffffff"/>
   <stop offset="1" stop-color="#000000"/>
  </linearGradient>
  <linearGradient id="LinearGradient_2" gradientUnits="userSpaceOnUse" x1="0" y1="0" x2="103.889" y2="0" gradientTransform="translate(156.182 274.451) rotate(-89.9653)">
   <stop offset="0" stop-color="#151c2e"/>
   <stop offset="1" stop-color="#111828"/>
  </linearGradient>
  <linearGradient id="LinearGradient_3" gradientUnits="userSpaceOnUse" x1="0" y1="0" x2="0" y2="-126.92" gradientTransform="translate(154.988 275.942)">
   <stop offset="0" stop-color="#ffffff"/>
   <stop offset="1" stop-color="#000000"/>
  </linearGradient>
  <linearGradient id="LinearGradient_4" gradientUnits="userSpaceOnUse" x1="0" y1="0" x2="184.951" y2="-148.736" gradientTransform="translate(-85.802 393.424)">
   <stop offset="0" stop-color="#ffffff"/>
   <stop offset="1" stop-color="#000000"/>
  </linearGradient>
  <linearGradient id="LinearGradient_5" gradientUnits="userSpaceOnUse" x1="0" y1="0" x2="237.333" y2="0" gradientTransform="translate(395.769 393.424) rotate(-141.193)">
   <stop offset="0" stop-color="#ffffff"/>
   <stop offset="1" stop-color="#000000"/>
  </linearGradient>
  <linearGradient id="LinearGradient_6" gradientUnits="userSpaceOnUse" x1="0" y1="0" x2="164.715" y2="0" gradientTransform="matrix(0.00193787 1 1 -4.57764e-05 489.644 -127.892)">
   <stop offset="0" stop-color="#151c2e"/>
   <stop offset="1" stop-color="#111828"/>
  </linearGradient>
  <linearGradient id="LinearGradient_7" gradientUnits="userSpaceOnUse" x1="0" y1="0" x2="164.715" y2="0" gradientTransform="matrix(0.00193787 1 1 -4.57764e-05 489.644 -127.892)">
   <stop offset="0" stop-color="#151c2e"/>
   <stop offset="1" stop-color="#111828"/>
  </linearGradient>
  <linearGradient id="LinearGradient_8" gradientUnits="userSpaceOnUse" x1="0" y1="0" x2="-4.658" y2="313.789" gradientTransform="translate(-1249.72 -226.358)">
   <stop offset="0" stop-color="#ffffff"/>
   <stop offset="1" stop-color="#000000"/>
  </linearGradient>
  <linearGradient id="LinearGradient_9" gradientUnits="userSpaceOnUse" x1="0" y1="0" x2="103.889" y2="0" gradientTransform="translate(-1241.82 274.451) rotate(-89.9653)">
   <stop offset="0" stop-color="#151c2e"/>
   <stop offset="1" stop-color="#111828"/>
  </linearGradient>
  <linearGradient id="LinearGradient_10" gradientUnits="userSpaceOnUse" x1="0" y1="0" x2="0" y2="-126.92" gradientTransform="translate(-1243.01 275.942)">
   <stop offset="0" stop-color="#ffffff"/>
   <stop offset="1" stop-color="#000000"/>
  </linearGradient>
  <linearGradient id="LinearGradient_11" gradientUnits="userSpaceOnUse" x1="0" y1="0" x2="184.951" y2="-148.736" gradientTransform="translate(-1483.8 393.424)">
   <stop offset="0" stop-color="#ffffff"/>
   <stop offset="1" stop-color="#000000"/>
  </linearGradient>
  <linearGradient id="LinearGradient_12" gradientUnits="userSpaceOnUse" x1="0" y1="0" x2="237.333" y2="0" gradientTransform="translate(-1002.23 393.424) rotate(-141.193)">
   <stop offset="0" stop-color="#ffffff"/>
   <stop offset="1" stop-color="#000000"/>
  </linearGradient>
  <style type="text/css">@import url('https://themes.googleusercontent.com/fonts/css?family=Inter:400,700');</style>
 </defs>
 <g id="Your Design Here" transform="scale(1 -1)">
  <g id="Group" stroke-linejoin="miter" stroke="none">
   <g id="Group_1" fill-rule="nonzero" fill="url(#LinearGradient)">
    <g id="Group_2">
     <path d="M 416.927,202.315 L 390.398,202.315 C 389.915,205.747 388.925,208.806 387.43,211.492 C 385.935,214.176 384.017,216.466 381.676,218.366 C 379.333,220.264 376.64,221.718 373.591,222.727 C 370.543,223.736 367.241,224.241 363.69,224.241 C 357.268,224.241 351.675,222.656 346.911,219.487 C 342.145,216.317 338.452,211.715 335.828,205.676 C 333.203,199.641 331.891,192.321 331.891,183.722 C 331.891,174.879 333.213,167.451 335.859,161.434 C 338.502,155.417 342.207,150.874 346.973,147.806 C 351.737,144.736 357.249,143.203 363.507,143.203 C 367.02,143.203 370.28,143.668 373.288,144.596 C 376.297,145.525 378.971,146.887 381.314,148.685 C 383.654,150.481 385.604,152.672 387.158,155.256 C 388.714,157.84 389.794,160.787 390.398,164.099 L 416.927,163.976 C 416.24,158.283 414.532,152.802 411.808,147.534 C 409.081,142.263 405.428,137.559 400.847,133.42 C 396.263,129.282 390.813,126.011 384.493,123.609 C 378.175,121.207 371.038,120.006 363.083,120.006 C 352.019,120.006 342.136,122.509 333.435,127.515 C 324.735,132.522 317.87,139.771 312.843,149.261 C 307.814,158.748 305.301,170.234 305.303,183.722 C 305.301,197.248 307.845,208.756 312.933,218.245 C 318.021,227.732 324.926,234.972 333.648,239.958 C 342.37,244.944 352.182,247.436 363.083,247.439 C 370.27,247.436 376.943,246.427 383.1,244.409 C 389.259,242.391 394.719,239.453 399.483,235.597 C 404.249,231.741 408.136,227.027 411.142,221.455 C 414.15,215.884 416.079,209.504 416.927,202.315 Z" marker-start="none" marker-end="none"/>
     <path d="M 444.529,86.816 C 441.258,86.816 438.2,87.067 435.352,87.572 C 432.507,88.076 430.155,88.714 428.298,89.481 L 434.111,108.742 C 437.138,107.811 439.874,107.306 442.319,107.226 C 444.761,107.145 446.881,107.711 448.679,108.922 C 450.475,110.135 451.939,112.193 453.069,115.1 L 454.582,119.037 L 421.21,214.732 L 448.345,214.732 L 467.606,146.413 L 468.573,146.413 L 488.016,214.732 L 515.331,214.732 L 479.173,111.648 C 477.437,106.641 475.085,102.27 472.116,98.535 C 469.148,94.799 465.403,91.911 460.881,89.874 C 456.359,87.835 450.908,86.816 444.529,86.816 Z" marker-start="none" marker-end="none"/>
     <path d="M 521.221,121.702 L 521.221,245.743 L 547.023,245.743 L 547.023,199.105 L 547.811,199.105 C 548.941,201.609 550.585,204.163 552.746,206.768 C 554.906,209.372 557.732,211.553 561.226,213.309 C 564.718,215.066 569.069,215.943 574.278,215.943 C 581.063,215.943 587.321,214.178 593.054,210.644 C 598.786,207.112 603.37,201.801 606.802,194.716 C 610.235,187.628 611.95,178.755 611.95,168.095 C 611.95,157.717 610.284,148.967 606.954,141.839 C 603.623,134.714 599.101,129.322 593.388,125.669 C 587.674,122.014 581.283,120.188 574.217,120.188 C 569.209,120.188 564.959,121.015 561.468,122.671 C 557.974,124.326 555.117,126.416 552.897,128.938 C 550.675,131.461 548.982,134.017 547.811,136.602 L 546.66,136.602 L 546.66,121.702 L 521.221,121.702 Z M 546.478,168.216 C 546.478,162.685 547.245,157.862 548.78,153.742 C 550.315,149.623 552.535,146.423 555.441,144.142 C 558.348,141.86 561.882,140.719 566.04,140.721 C 570.239,140.719 573.793,141.879 576.702,144.203 C 579.608,146.525 581.818,149.756 583.332,153.894 C 584.846,158.032 585.604,162.805 585.604,168.216 C 585.604,173.586 584.855,178.312 583.363,182.389 C 581.868,186.468 579.667,189.656 576.761,191.959 C 573.854,194.259 570.282,195.41 566.04,195.412 C 561.842,195.41 558.298,194.299 555.411,192.079 C 552.525,189.857 550.315,186.709 548.78,182.633 C 547.245,178.553 546.478,173.747 546.478,168.216 Z" marker-start="none" marker-end="none"/>
     <path d="M 663.679,119.885 C 654.111,119.885 645.884,121.834 638.998,125.729 C 632.114,129.625 626.815,135.157 623.101,142.325 C 619.387,149.493 617.527,157.983 617.527,167.792 C 617.527,177.362 619.387,185.759 623.101,192.989 C 626.815,200.216 632.053,205.849 638.818,209.886 C 645.581,213.925 653.526,215.943 662.651,215.943 C 668.789,215.943 674.512,214.965 679.82,213.006 C 685.131,211.047 689.774,208.109 693.751,204.194 C 697.728,200.278 700.829,195.363 703.049,189.445 C 705.271,183.53 706.379,176.616 706.379,168.701 L 706.379,161.614 L 627.825,161.614 L 627.825,177.604 L 682.092,177.604 C 682.092,181.318 681.284,184.61 679.669,187.477 C 678.055,190.345 675.824,192.596 672.977,194.23 C 670.129,195.865 666.83,196.682 663.075,196.684 C 659.159,196.682 655.696,195.784 652.688,193.989 C 649.679,192.191 647.327,189.789 645.631,186.78 C 643.935,183.772 643.068,180.43 643.028,176.758 L 643.028,161.555 C 643.028,156.952 643.885,152.975 645.6,149.623 C 647.318,146.271 649.75,143.687 652.898,141.87 C 656.049,140.053 659.782,139.146 664.103,139.146 C 666.969,139.146 669.594,139.548 671.977,140.356 C 674.358,141.164 676.397,142.374 678.096,143.99 C 679.789,145.605 681.083,147.586 681.971,149.926 L 705.834,148.351 C 704.624,142.618 702.151,137.623 698.415,133.361 C 694.68,129.102 689.873,125.79 683.999,123.429 C 678.124,121.067 671.352,119.885 663.679,119.885 Z" marker-start="none" marker-end="none"/>
     <path d="M 715.416,121.702 L 715.416,214.732 L 740.431,214.732 L 740.431,198.499 L 741.399,198.499 C 743.095,204.274 745.943,208.645 749.939,211.613 C 753.938,214.581 758.54,216.064 763.749,216.064 C 765.04,216.064 766.433,215.983 767.928,215.822 C 769.423,215.659 770.735,215.438 771.865,215.156 L 771.865,192.262 C 770.654,192.624 768.98,192.946 766.838,193.231 C 764.699,193.513 762.74,193.655 760.964,193.655 C 757.169,193.655 753.786,192.837 750.818,191.203 C 747.85,189.566 745.509,187.294 743.792,184.388 C 742.077,181.481 741.219,178.129 741.219,174.335 L 741.219,121.702 L 715.416,121.702 Z" marker-start="none" marker-end="none"/>
     <path d="M 794.403,245.743 L 794.403,121.702 L 780.11,121.702 L 780.11,245.743 L 794.403,245.743 Z" marker-start="none" marker-end="none"/>
     <path d="M 852.006,119.764 C 843.042,119.764 835.32,121.754 828.839,125.729 C 822.358,129.708 817.369,135.28 813.877,142.445 C 810.386,149.614 808.64,157.961 808.64,167.491 C 808.64,177.018 810.386,185.428 813.877,192.717 C 817.369,200.005 822.256,205.698 828.536,209.796 C 834.815,213.894 842.154,215.943 850.551,215.943 C 855.396,215.943 860.181,215.135 864.907,213.52 C 869.63,211.904 873.929,209.291 877.807,205.676 C 881.683,202.064 884.771,197.288 887.074,191.352 C 889.374,185.418 890.525,178.11 890.525,169.429 L 890.525,163.372 L 818.814,163.372 L 818.814,175.727 L 875.99,175.727 C 875.99,180.974 874.95,185.66 872.87,189.779 C 870.791,193.899 867.841,197.149 864.028,199.529 C 860.212,201.912 855.72,203.104 850.551,203.104 C 844.859,203.104 839.944,201.699 835.803,198.894 C 831.665,196.087 828.484,192.444 826.264,187.962 C 824.042,183.481 822.933,178.674 822.933,173.546 L 822.933,165.309 C 822.933,158.283 824.153,152.338 826.598,147.472 C 829.04,142.607 832.442,138.914 836.803,136.388 C 841.164,133.866 846.233,132.603 852.006,132.603 C 855.761,132.603 859.162,133.138 862.211,134.209 C 865.259,135.28 867.894,136.895 870.113,139.053 C 872.335,141.214 874.05,143.909 875.263,147.14 L 889.071,143.263 C 887.616,138.58 885.174,134.472 881.744,130.938 C 878.312,127.406 874.071,124.66 869.024,122.701 C 863.976,120.745 858.305,119.764 852.006,119.764 Z" marker-start="none" marker-end="none"/>
     <path d="M 942.319,84.878 C 935.414,84.876 929.478,85.755 924.513,87.513 C 919.546,89.268 915.417,91.57 912.126,94.418 C 908.836,97.265 906.223,100.302 904.283,103.533 L 915.67,111.528 C 916.961,109.829 918.596,107.882 920.576,105.681 C 922.554,103.481 925.271,101.562 928.722,99.928 C 932.176,98.293 936.708,97.476 942.319,97.476 C 949.829,97.476 956.025,99.293 960.912,102.926 C 965.797,106.56 968.241,112.252 968.241,120.006 L 968.241,138.902 L 967.031,138.902 C 965.979,137.206 964.496,135.116 962.58,132.634 C 960.661,130.149 957.916,127.948 954.341,126.032 C 950.769,124.113 945.953,123.156 939.896,123.156 C 932.387,123.156 925.655,124.933 919.697,128.486 C 913.742,132.039 909.038,137.206 905.586,143.99 C 902.135,150.772 900.408,159.011 900.408,168.701 C 900.408,178.231 902.085,186.539 905.435,193.624 C 908.786,200.711 913.448,206.202 919.425,210.099 C 925.401,213.996 932.306,215.943 940.14,215.943 C 946.195,215.943 951.011,214.943 954.583,212.944 C 958.157,210.945 960.903,208.685 962.822,206.162 C 964.74,203.639 966.223,201.569 967.273,199.953 L 968.727,199.953 L 968.727,214.732 L 982.535,214.732 L 982.535,119.037 C 982.535,111.042 980.728,104.53 977.115,99.504 C 973.5,94.477 968.656,90.784 962.58,88.42 C 956.502,86.058 949.748,84.876 942.319,84.878 Z M 941.834,135.995 C 947.569,135.995 952.413,137.308 956.371,139.932 C 960.327,142.557 963.336,146.333 965.394,151.257 C 967.455,156.185 968.485,162.081 968.483,168.943 C 968.485,175.647 967.476,181.562 965.456,186.69 C 963.438,191.819 960.448,195.836 956.492,198.743 C 952.534,201.649 947.649,203.104 941.834,203.104 C 935.779,203.104 930.741,201.569 926.723,198.499 C 922.706,195.431 919.7,191.312 917.7,186.143 C 915.701,180.977 914.701,175.244 914.701,168.943 C 914.701,162.483 915.72,156.779 917.76,151.833 C 919.799,146.887 922.826,143.012 926.844,140.205 C 930.861,137.4 935.86,135.995 941.834,135.995 Z" marker-start="none" marker-end="none"/>
     <path d="M 1028.49,119.522 C 1022.6,119.52 1017.25,120.64 1012.44,122.884 C 1007.64,125.122 1003.82,128.372 1001,132.634 C 998.171,136.893 996.757,142.052 996.757,148.109 C 996.757,153.439 997.806,157.769 999.905,161.1 C 1002,164.43 1004.81,167.046 1008.32,168.943 C 1011.84,170.843 1015.72,172.267 1019.98,173.214 C 1024.25,174.164 1028.54,174.92 1032.85,175.486 C 1038.51,176.211 1043.1,176.767 1046.63,177.151 C 1050.17,177.535 1052.75,178.191 1054.39,179.12 C 1056.02,180.048 1056.84,181.661 1056.84,183.964 L 1056.84,184.449 C 1056.84,190.426 1055.21,195.069 1051.96,198.378 C 1048.71,201.69 1043.8,203.345 1037.21,203.345 C 1030.39,203.345 1025.04,201.851 1021.17,198.864 C 1017.29,195.877 1014.56,192.686 1012.99,189.294 L 999.422,194.14 C 1001.84,199.792 1005.08,204.203 1009.14,207.372 C 1013.2,210.542 1017.64,212.764 1022.47,214.036 C 1027.29,215.308 1032.05,215.943 1036.73,215.943 C 1039.72,215.943 1043.16,215.59 1047.06,214.884 C 1050.95,214.176 1054.73,212.733 1058.38,210.551 C 1062.04,208.372 1065.08,205.082 1067.5,200.681 C 1069.92,196.279 1071.13,190.383 1071.13,182.995 L 1071.13,121.702 L 1056.84,121.702 L 1056.84,134.299 L 1056.11,134.299 C 1055.14,132.281 1053.53,130.121 1051.27,127.818 C 1049.01,125.518 1046,123.559 1042.24,121.943 C 1038.49,120.328 1033.9,119.52 1028.49,119.522 Z M 1030.67,132.361 C 1036.33,132.361 1041.1,133.472 1045,135.692 C 1048.89,137.914 1051.84,140.78 1053.84,144.293 C 1055.84,147.806 1056.84,151.501 1056.84,155.377 L 1056.84,168.46 C 1056.23,167.733 1054.91,167.076 1052.87,166.491 C 1050.83,165.906 1048.49,165.399 1045.85,164.975 C 1043.2,164.551 1040.64,164.189 1038.15,163.886 C 1035.67,163.582 1033.66,163.331 1032.13,163.13 C 1028.41,162.647 1024.95,161.867 1021.74,160.797 C 1018.53,159.726 1015.95,158.132 1013.99,156.012 C 1012.03,153.892 1011.05,151.016 1011.05,147.382 C 1011.05,142.417 1012.9,138.672 1016.59,136.147 C 1020.29,133.624 1024.98,132.361 1030.67,132.361 Z" marker-start="none" marker-end="none"/>
     <path d="M 1104.01,245.743 L 1104.01,121.702 L 1089.72,121.702 L 1089.72,245.743 L 1104.01,245.743 Z" marker-start="none" marker-end="none"/>
     <path d="M 1133.03,120.733 C 1130.04,120.733 1127.48,121.801 1125.34,123.943 C 1123.19,126.082 1122.13,128.647 1122.13,131.634 C 1122.13,134.624 1123.19,137.187 1125.34,139.326 C 1127.48,141.467 1130.04,142.538 1133.03,142.535 C 1136.02,142.538 1138.58,141.467 1140.72,139.326 C 1142.86,137.187 1143.93,134.624 1143.93,131.634 C 1143.93,129.656 1143.44,127.839 1142.45,126.184 C 1141.46,124.53 1140.15,123.206 1138.51,122.216 C 1136.88,121.226 1135.05,120.733 1133.03,120.733 Z" marker-start="none" marker-end="none"/>
     <path d="M 1189.37,119.522 C 1183.48,119.52 1178.13,120.64 1173.32,122.884 C 1168.52,125.122 1164.7,128.372 1161.88,132.634 C 1159.05,136.893 1157.64,142.052 1157.64,148.109 C 1157.64,153.439 1158.69,157.769 1160.79,161.1 C 1162.88,164.43 1165.69,167.046 1169.2,168.943 C 1172.72,170.843 1176.6,172.267 1180.86,173.214 C 1185.12,174.164 1189.41,174.92 1193.73,175.486 C 1199.39,176.211 1203.98,176.767 1207.51,177.151 C 1211.05,177.535 1213.63,178.191 1215.27,179.12 C 1216.9,180.048 1217.72,181.661 1217.72,183.964 L 1217.72,184.449 C 1217.72,190.426 1216.1,195.069 1212.84,198.378 C 1209.59,201.69 1204.67,203.345 1198.09,203.345 C 1191.27,203.345 1185.92,201.851 1182.05,198.864 C 1178.17,195.877 1175.44,192.686 1173.87,189.294 L 1160.3,194.14 C 1162.72,199.792 1165.96,204.203 1170.02,207.372 C 1174.08,210.542 1178.52,212.764 1183.35,214.036 C 1188.17,215.308 1192.92,215.943 1197.61,215.943 C 1200.6,215.943 1204.04,215.59 1207.94,214.884 C 1211.83,214.176 1215.61,212.733 1219.26,210.551 C 1222.92,208.372 1225.96,205.082 1228.38,200.681 C 1230.8,196.279 1232.01,190.383 1232.01,182.995 L 1232.01,121.702 L 1217.72,121.702 L 1217.72,134.299 L 1216.99,134.299 C 1216.02,132.281 1214.41,130.121 1212.15,127.818 C 1209.89,125.518 1206.88,123.559 1203.12,121.943 C 1199.37,120.328 1194.78,119.52 1189.37,119.522 Z M 1191.55,132.361 C 1197.21,132.361 1201.98,133.472 1205.88,135.692 C 1209.78,137.914 1212.72,140.78 1214.72,144.293 C 1216.72,147.806 1217.72,151.501 1217.72,155.377 L 1217.72,168.46 C 1217.11,167.733 1215.79,167.076 1213.75,166.491 C 1211.71,165.906 1209.37,165.399 1206.73,164.975 C 1204.08,164.551 1201.52,164.189 1199.03,163.886 C 1196.55,163.582 1194.54,163.331 1193.01,163.13 C 1189.29,162.647 1185.83,161.867 1182.62,160.797 C 1179.41,159.726 1176.83,158.132 1174.87,156.012 C 1172.91,153.892 1171.93,151.016 1171.93,147.382 C 1171.93,142.417 1173.78,138.672 1177.47,136.147 C 1181.17,133.624 1185.86,132.361 1191.55,132.361 Z" marker-start="none" marker-end="none"/>
     <path d="M 1250.6,121.702 L 1250.6,214.732 L 1264.89,214.732 L 1264.89,121.702 L 1250.6,121.702 Z M 1257.87,230.236 C 1255.08,230.236 1252.69,231.184 1250.69,233.084 C 1248.69,234.981 1247.69,237.262 1247.69,239.927 C 1247.69,242.592 1248.69,244.873 1250.69,246.771 C 1252.69,248.668 1255.08,249.618 1257.87,249.618 C 1260.65,249.618 1263.05,248.668 1265.05,246.771 C 1267.05,244.873 1268.04,242.592 1268.04,239.927 C 1268.04,237.262 1267.05,234.981 1265.05,233.084 C 1263.05,231.184 1260.65,230.236 1257.87,230.236 Z" marker-start="none" marker-end="none"/>
    </g>
   </g>
   <g id="Group_3">
    <g id="Group_4">
     <path d="M 139.042,29.044 C 120.989,38.057 103.644,48.266 88.109,62.629 C 59.009,89.534 37.352,129.403 32.97,173.285 C 32.253,180.452 32.325,188.358 32.225,195.599 C 32.06,208.071 31.973,220.548 31.96,233.024 L 31.867,261.64 L 31.839,270.207 C 31.834,271.9 31.909,273.688 31.73,275.372 C 31.718,275.419 31.718,275.46 31.709,275.511 L 31.709,277.648 L 125.673,304.783 L 146.299,310.695 C 148.252,311.257 153.484,313.101 155.08,313.05 C 156.107,313.017 157.275,312.543 158.277,312.258 L 164.009,310.615 L 186.603,304.118 L 278.267,277.648 L 278.267,275.54 C 278.263,275.486 278.251,275.439 278.251,275.39 C 278.067,273.718 278.141,271.933 278.137,270.249 L 278.104,261.74 L 278.02,232.957 C 277.999,220.551 277.911,208.159 277.752,195.758 C 277.655,188.543 277.723,180.541 277.018,173.406 C 272.712,129.7 251.139,89.815 222.211,62.947 C 206.642,48.493 189.255,38.211 171.131,29.146 C 165.788,26.477 160.502,23.737 155.034,21.449 L 154.908,21.449 C 149.533,23.77 144.317,26.414 139.042,29.044 Z M 162.068,84.213 L 162.068,100.201 C 164.202,101.093 166.204,102.413 167.946,104.156 C 175.14,111.353 175.14,123.03 167.946,130.232 C 160.744,137.43 149.068,137.43 141.871,130.232 C 134.677,123.03 134.677,111.353 141.871,104.156 C 143.604,102.413 145.611,101.093 147.748,100.201 L 147.748,84.213 C 147.748,80.568 150.706,77.607 154.352,77.607 L 155.457,77.607 C 159.102,77.607 162.068,80.568 162.068,84.213 Z M 87.85,147.753 C 92.341,150.254 97.461,152.031 102.405,152.605 C 106.498,167.088 115.848,178.685 127.315,185.456 C 135.938,190.567 145.357,192.833 154.959,192.896 C 166.597,192.683 177.445,189.179 187.365,181.91 C 190.868,179.347 194.065,176.544 196.943,173.034 C 201.489,167.481 205.31,159.974 207.392,152.638 C 217.757,151.084 228.106,146.165 234.658,136.127 C 237.829,131.25 239.652,125.703 241.382,119.967 C 245.391,129.005 249.376,138.083 252.166,147.769 C 262.619,183.935 257.545,225.441 258.484,263.013 C 248.714,265.611 238.968,268.305 229.236,271.095 L 178.877,285.536 C 170.921,287.833 162.977,290.287 154.992,292.42 L 82.504,271.593 C 72.189,268.665 61.866,265.577 51.484,263.005 C 52.288,225.621 47.461,184.182 57.663,148.26 C 60.462,138.402 64.509,129.143 68.594,119.964 C 72.57,133.018 76.659,141.536 87.85,147.753 Z" fill="#eb489a" marker-start="none" marker-end="none"/>
     <mask id="TranspMask">
      <rect x="-10%" y="-10%" width="120%" height="120%" fill="url(#LinearGradient_1)" stroke="none"/>
     </mask>
     <path d="M 154.975,31.76 L 143.215,37.399 C 125.51,46.235 109.049,55.976 94.452,69.483 C 87.565,75.842 81.121,82.977 75.264,90.741 L 71.368,96.975 L 77.531,117.244 C 81.276,129.554 84.409,135.155 92.387,139.592 C 95.964,141.581 99.915,142.914 103.473,143.325 L 109.69,144.045 L 111.391,150.07 C 114.827,162.232 122.666,171.855 132.067,177.428 C 139.109,181.592 146.873,183.503 154.9,183.557 C 164.532,183.377 173.502,180.499 181.847,174.374 C 184.906,172.136 187.474,169.862 189.712,167.121 C 193.381,162.635 196.646,156.296 198.409,150.082 L 200.055,144.292 L 206.013,143.4 C 214.489,142.135 222.109,138.26 226.832,131.024 C 229.194,127.396 230.707,123.026 232.433,117.278 L 238.566,96.883 L 234.93,91.03 C 229.098,83.262 222.697,76.14 215.855,69.784 C 201.216,56.189 184.717,46.373 166.949,37.49 L 154.975,31.76 Z M 162.068,84.213 L 162.068,100.201 C 164.202,101.093 166.204,102.413 167.946,104.156 C 175.14,111.353 175.14,123.03 167.946,130.232 C 160.744,137.43 149.068,137.43 141.871,130.232 C 134.677,123.03 134.677,111.353 141.871,104.156 C 143.604,102.413 145.611,101.093 147.748,100.201 L 147.748,84.213 C 147.748,80.568 150.706,77.607 154.352,77.607 L 155.457,77.607 C 159.102,77.607 162.068,80.568 162.068,84.213 Z M 61.769,112.33 L 59.583,115.837 C 50.495,133.651 44.328,153.472 42.262,174.215 C 41.592,180.859 41.664,188.145 41.559,195.728 C 41.399,208.154 41.311,220.598 41.29,233.041 L 41.198,261.668 L 41.169,270.24 L 41.169,270.656 L 128.245,295.814 L 148.88,301.717 C 150.317,302.136 151.67,302.581 152.852,302.957 L 154.9,303.523 L 155.705,303.276 L 161.423,301.642 L 184.014,295.147 L 268.795,270.663 L 268.798,270.286 L 268.765,261.769 L 268.682,232.973 C 268.661,220.598 268.572,208.238 268.414,195.888 C 268.312,188.342 268.38,180.943 267.722,174.32 C 265.691,153.668 259.561,133.886 250.52,116.088 L 248.257,112.455 L 249.916,116.18 C 253.897,125.154 258.141,134.795 261.136,145.181 C 272.03,182.87 266.935,227.251 267.823,262.775 L 268.003,270.14 L 260.889,272.033 C 251.173,274.618 241.479,277.295 231.805,280.069 L 181.458,294.503 C 173.732,296.74 165.504,299.274 157.401,301.441 L 154.9,302.111 L 79.94,280.568 C 69.473,277.602 59.418,274.581 49.238,272.063 L 41.982,270.274 L 42.154,262.8 C 42.917,227.348 38.048,183.159 48.677,145.708 C 51.689,135.121 56,125.31 60.069,116.164 L 61.769,112.33 Z" fill="#ffffff" marker-start="none" marker-end="none" mask="url(#TranspMask)"/>
    </g>
    <path d="M 68.192,175.887 C 61.086,182.996 61.086,194.525 68.192,201.636 C 69.152,202.595 70.187,203.42 71.289,204.124 C 70.785,223.723 70.831,243.553 70.931,250.143 L 156.128,274.467 L 241.332,250.143 C 241.424,243.57 241.47,223.828 240.984,204.262 C 242.158,203.534 243.276,202.654 244.302,201.636 C 251.404,194.525 251.404,182.996 244.302,175.887 C 237.189,168.785 225.655,168.785 218.553,175.887 C 211.447,182.996 211.447,194.525 218.553,201.636 C 219.571,202.654 220.681,203.529 221.85,204.254 C 221.925,213.979 221.792,223.723 221.942,233.808 L 165.844,250.864 L 165.848,199.064 C 165.613,199.106 165.383,199.143 165.148,199.172 C 164.209,199.306 163.3,199.415 162.379,199.503 C 161.44,199.592 160.505,199.654 159.58,199.7 C 158.667,199.738 157.728,199.759 156.782,199.755 C 155.859,199.755 154.933,199.725 154.003,199.679 C 153.065,199.637 152.122,199.566 151.201,199.465 C 150.275,199.373 149.357,199.26 148.457,199.127 C 147.518,198.988 146.588,198.829 145.678,198.644 C 144.778,198.464 143.864,198.259 142.948,198.028 C 142.918,198.02 142.885,198.007 142.859,198.004 L 142.859,249.82 L 90.325,233.808 C 90.468,223.76 90.33,214.075 90.406,204.396 C 91.658,203.643 92.857,202.725 93.941,201.636 C 101.047,194.525 101.047,182.996 93.941,175.887 C 86.836,168.785 75.298,168.785 68.192,175.887 Z M 87.967,181.865 C 91.775,185.669 91.775,191.861 87.967,195.662 C 84.163,199.474 77.979,199.474 74.17,195.662 C 70.358,191.861 70.358,185.669 74.17,181.865 C 77.979,178.052 84.163,178.052 87.967,181.865 Z M 238.319,181.865 C 242.137,185.669 242.137,191.861 238.319,195.662 C 234.524,199.474 228.331,199.474 224.523,195.662 C 220.714,191.861 220.714,185.669 224.523,181.865 C 228.331,178.052 234.524,178.052 238.319,181.865 Z" marker-start="none" marker-end="none" fill="url(#LinearGradient_2)"/>
    <mask id="TranspMask_1">
     <rect x="-10%" y="-10%" width="120%" height="120%" fill="url(#LinearGradient_3)" stroke="none"/>
    </mask>
    <path d="M 154.975,31.76 L 143.215,37.399 C 125.51,46.235 109.049,55.976 94.452,69.483 C 87.565,75.842 81.121,82.977 75.264,90.741 L 71.368,96.975 L 77.531,117.244 C 81.276,129.554 84.409,135.155 92.387,139.592 C 95.964,141.581 99.915,142.914 103.473,143.325 L 109.69,144.045 L 111.391,150.07 C 114.827,162.232 122.666,171.855 132.067,177.428 C 139.109,181.592 146.873,183.503 154.9,183.557 C 164.532,183.377 173.502,180.499 181.847,174.374 C 184.906,172.136 187.474,169.862 189.712,167.121 C 193.381,162.635 196.646,156.296 198.409,150.082 L 200.055,144.292 L 206.013,143.4 C 214.489,142.135 222.109,138.26 226.832,131.024 C 229.194,127.396 230.707,123.026 232.433,117.278 L 238.566,96.883 L 234.93,91.03 C 229.098,83.262 222.697,76.14 215.855,69.784 C 201.216,56.189 184.717,46.373 166.949,37.49 L 154.975,31.76 Z M 162.068,84.213 L 162.068,100.201 C 164.202,101.093 166.204,102.413 167.946,104.156 C 175.14,111.353 175.14,123.03 167.946,130.232 C 160.744,137.43 149.068,137.43 141.871,130.232 C 134.677,123.03 134.677,111.353 141.871,104.156 C 143.604,102.413 145.611,101.093 147.748,100.201 L 147.748,84.213 C 147.748,80.568 150.706,77.607 154.352,77.607 L 155.457,77.607 C 159.102,77.607 162.068,80.568 162.068,84.213 Z M 61.769,112.33 L 59.583,115.837 C 57.555,119.804 55.677,123.876 53.956,128.033 L 53.993,128.096 L 54.555,128.959 C 56.344,124.551 58.229,120.29 60.069,116.164 L 61.769,112.33 Z M 248.257,112.455 L 249.916,116.18 C 252.174,121.275 254.517,126.587 256.674,132.126 L 256.582,132.117 L 257.688,132.222 C 255.568,126.692 253.167,121.304 250.52,116.088 L 248.257,112.455 Z" fill="#ffffff" marker-start="none" marker-end="none" mask="url(#TranspMask_1)"/>
    <mask id="TranspMask_2">
     <rect x="-10%" y="-10%" width="120%" height="120%" fill="url(#LinearGradient_4)" stroke="none"/>
    </mask>
    <path d="M 154.968,27.897 L 141.636,34.278 C 123.817,43.176 107.03,53.093 92.081,66.915 C 63.964,92.906 43.021,131.481 38.789,173.862 C 38.102,180.713 38.173,188.221 38.064,195.674 C 37.909,208.126 37.817,220.572 37.796,233.036 L 37.713,261.661 L 37.683,270.249 L 37.608,273.257 L 127.287,299.161 L 147.912,305.073 L 152.215,306.409 L 154.984,307.113 L 156.664,306.627 L 162.386,304.99 L 184.982,298.495 L 272.356,273.265 L 272.284,270.286 L 272.255,261.757 L 272.172,232.966 C 272.151,220.581 272.058,208.21 271.904,195.837 C 271.798,188.417 271.865,180.792 271.195,173.976 C 267.04,131.77 246.171,93.187 218.226,67.233 C 203.236,53.311 186.41,43.319 168.525,34.383 L 154.968,27.897 Z M 167.918,84.213 L 167.918,97.171 L 171.943,99.882 L 172.078,100.017 C 181.554,109.502 181.554,124.882 172.078,134.363 C 162.596,143.839 147.217,143.839 137.735,134.363 C 128.259,124.882 128.259,109.502 137.731,100.017 L 137.865,99.882 L 141.895,97.171 L 141.9,84.205 C 141.9,77.33 147.48,71.757 154.352,71.757 L 155.457,71.757 C 162.324,71.757 167.918,77.321 167.918,84.213 Z M 240.326,103.172 L 246.72,117.592 C 250.716,126.596 254.864,136.018 257.785,146.14 C 268.514,183.264 263.419,226.572 264.333,262.859 L 264.45,267.471 L 259.989,268.656 C 250.251,271.254 240.544,273.932 230.841,276.713 L 180.49,291.151 C 172.681,293.409 164.553,295.919 156.5,298.063 L 154.933,298.491 L 80.899,277.212 C 70.484,274.254 60.332,271.221 50.072,268.682 L 45.535,267.551 L 45.635,262.875 C 46.419,226.694 41.559,183.536 52.037,146.664 C 54.961,136.349 59.176,126.738 63.248,117.576 L 69.624,103.259 L 74.187,118.254 C 78.021,130.847 81.514,137.539 90.686,142.641 C 94.612,144.816 98.994,146.32 103.07,146.79 L 106.967,147.238 L 108.035,151.013 C 111.714,164.051 120.113,174.403 130.291,180.424 C 137.923,184.949 146.308,186.984 154.921,187.043 C 165.299,186.854 174.973,183.738 183.909,177.189 C 187.131,174.831 189.934,172.355 192.414,169.325 C 196.411,164.44 199.884,157.666 201.761,151.038 L 202.792,147.406 L 206.529,146.844 C 215.704,145.478 224.348,141.218 229.756,132.93 C 232.417,128.833 234.05,124.022 235.777,118.279 L 240.326,103.172 Z" fill="#ffffff" marker-start="none" marker-end="none" mask="url(#TranspMask_2)"/>
    <mask id="TranspMask_3">
     <rect x="-10%" y="-10%" width="120%" height="120%" fill="url(#LinearGradient_5)" stroke="none"/>
    </mask>
    <path d="M 154.968,27.897 L 141.636,34.278 C 123.817,43.176 107.03,53.093 92.081,66.915 C 63.964,92.906 43.021,131.481 38.789,173.862 C 38.102,180.713 38.173,188.221 38.064,195.674 C 37.909,208.126 37.817,220.572 37.796,233.036 L 37.713,261.661 L 37.683,270.249 L 37.608,273.257 L 127.287,299.161 L 147.912,305.073 L 152.215,306.409 L 154.984,307.113 L 156.664,306.627 L 162.386,304.99 L 184.982,298.495 L 272.356,273.265 L 272.284,270.286 L 272.255,261.757 L 272.172,232.966 C 272.151,220.581 272.058,208.21 271.904,195.837 C 271.798,188.417 271.865,180.792 271.195,173.976 C 267.04,131.77 246.171,93.187 218.226,67.233 C 203.236,53.311 186.41,43.319 168.525,34.383 L 154.968,27.897 Z M 167.918,84.213 L 167.918,97.171 L 171.943,99.882 L 172.078,100.017 C 181.554,109.502 181.554,124.882 172.078,134.363 C 162.596,143.839 147.217,143.839 137.735,134.363 C 128.259,124.882 128.259,109.502 137.731,100.017 L 137.865,99.882 L 141.895,97.171 L 141.9,84.205 C 141.9,77.33 147.48,71.757 154.352,71.757 L 155.457,71.757 C 162.324,71.757 167.918,77.321 167.918,84.213 Z M 240.326,103.172 L 246.72,117.592 C 250.716,126.596 254.864,136.018 257.785,146.14 C 268.514,183.264 263.419,226.572 264.333,262.859 L 264.45,267.471 L 259.989,268.656 C 250.251,271.254 240.544,273.932 230.841,276.713 L 180.49,291.151 C 172.681,293.409 164.553,295.919 156.5,298.063 L 154.933,298.491 L 80.899,277.212 C 70.484,274.254 60.332,271.221 50.072,268.682 L 45.535,267.551 L 45.635,262.875 C 46.419,226.694 41.559,183.536 52.037,146.664 C 54.961,136.349 59.176,126.738 63.248,117.576 L 69.624,103.259 L 74.187,118.254 C 78.021,130.847 81.514,137.539 90.686,142.641 C 94.612,144.816 98.994,146.32 103.07,146.79 L 106.967,147.238 L 108.035,151.013 C 111.714,164.051 120.113,174.403 130.291,180.424 C 137.923,184.949 146.308,186.984 154.921,187.043 C 165.299,186.854 174.973,183.738 183.909,177.189 C 187.131,174.831 189.934,172.355 192.414,169.325 C 196.411,164.44 199.884,157.666 201.761,151.038 L 202.792,147.406 L 206.529,146.844 C 215.704,145.478 224.348,141.218 229.756,132.93 C 232.417,128.833 234.05,124.022 235.777,118.279 L 240.326,103.172 Z" fill="#ffffff" marker-start="none" marker-end="none" mask="url(#TranspMask_3)"/>
   </g>
  </g>
  <g id="Group_5" stroke-linejoin="miter" stroke="none">
   <text xml:space="preserve" transform="translate(-1101.3 121.702) scale(1 -1)" kerning="auto" font-size="170.555" letter-spacing="-0.05em" font-family="Inter" fill="url(#LinearGradient_7)"><tspan x="0" y="0" font-weight="bold">Cyber</tspan><tspan x="470.325" y="0">legal.ai</tspan></text>
   <g id="Group_6">
    <g id="Group_7">
     <path d="M -1258.96,29.044 C -1277.01,38.057 -1294.36,48.266 -1309.89,62.629 C -1338.99,89.534 -1360.65,129.403 -1365.03,173.285 C -1365.75,180.452 -1365.67,188.358 -1365.78,195.599 C -1365.94,208.071 -1366.03,220.548 -1366.04,233.024 L -1366.13,261.64 L -1366.16,270.207 C -1366.17,271.9 -1366.09,273.688 -1366.27,275.372 C -1366.28,275.419 -1366.28,275.46 -1366.29,275.511 L -1366.29,277.648 L -1272.33,304.783 L -1251.7,310.695 C -1249.75,311.257 -1244.52,313.101 -1242.92,313.05 C -1241.89,313.017 -1240.73,312.543 -1239.72,312.258 L -1233.99,310.615 L -1211.4,304.118 L -1119.73,277.648 L -1119.73,275.54 C -1119.74,275.486 -1119.75,275.439 -1119.75,275.39 C -1119.93,273.718 -1119.86,271.933 -1119.86,270.249 L -1119.9,261.74 L -1119.98,232.957 C -1120,220.551 -1120.09,208.159 -1120.25,195.758 C -1120.35,188.543 -1120.28,180.541 -1120.98,173.406 C -1125.29,129.7 -1146.86,89.815 -1175.79,62.947 C -1191.36,48.493 -1208.75,38.211 -1226.87,29.146 C -1232.21,26.477 -1237.5,23.737 -1242.97,21.449 L -1243.09,21.449 C -1248.47,23.77 -1253.68,26.414 -1258.96,29.044 Z M -1235.93,84.213 L -1235.93,100.201 C -1233.8,101.093 -1231.8,102.413 -1230.05,104.156 C -1222.86,111.353 -1222.86,123.03 -1230.05,130.232 C -1237.26,137.43 -1248.93,137.43 -1256.13,130.232 C -1263.32,123.03 -1263.32,111.353 -1256.13,104.156 C -1254.4,102.413 -1252.39,101.093 -1250.25,100.201 L -1250.25,84.213 C -1250.25,80.568 -1247.29,77.607 -1243.65,77.607 L -1242.54,77.607 C -1238.9,77.607 -1235.93,80.568 -1235.93,84.213 Z M -1310.15,147.753 C -1305.66,150.254 -1300.54,152.031 -1295.6,152.605 C -1291.5,167.088 -1282.15,178.685 -1270.68,185.456 C -1262.06,190.567 -1252.64,192.833 -1243.04,192.896 C -1231.4,192.683 -1220.56,189.179 -1210.63,181.91 C -1207.13,179.347 -1203.93,176.544 -1201.06,173.034 C -1196.51,167.481 -1192.69,159.974 -1190.61,152.638 C -1180.24,151.084 -1169.89,146.165 -1163.34,136.127 C -1160.17,131.25 -1158.35,125.703 -1156.62,119.967 C -1152.61,129.005 -1148.62,138.083 -1145.83,147.769 C -1135.38,183.935 -1140.45,225.441 -1139.52,263.013 C -1149.29,265.611 -1159.03,268.305 -1168.76,271.095 L -1219.12,285.536 C -1227.08,287.833 -1235.02,290.287 -1243.01,292.42 L -1315.5,271.593 C -1325.81,268.665 -1336.13,265.577 -1346.52,263.005 C -1345.71,225.621 -1350.54,184.182 -1340.34,148.26 C -1337.54,138.402 -1333.49,129.143 -1329.41,119.964 C -1325.43,133.018 -1321.34,141.536 -1310.15,147.753 Z" fill="#eb489a" marker-start="none" marker-end="none"/>
     <mask id="TranspMask_4">
      <rect x="-10%" y="-10%" width="120%" height="120%" fill="url(#LinearGradient_8)" stroke="none"/>
     </mask>
     <path d="M -1243.03,31.76 L -1254.79,37.399 C -1272.49,46.235 -1288.95,55.976 -1303.55,69.483 C -1310.43,75.842 -1316.88,82.977 -1322.74,90.741 L -1326.63,96.975 L -1320.47,117.244 C -1316.72,129.554 -1313.59,135.155 -1305.61,139.592 C -1302.04,141.581 -1298.09,142.914 -1294.53,143.325 L -1288.31,144.045 L -1286.61,150.07 C -1283.17,162.232 -1275.33,171.855 -1265.93,177.428 C -1258.89,181.592 -1251.13,183.503 -1243.1,183.557 C -1233.47,183.377 -1224.5,180.499 -1216.15,174.374 C -1213.09,172.136 -1210.53,169.862 -1208.29,167.121 C -1204.62,162.635 -1201.35,156.296 -1199.59,150.082 L -1197.94,144.292 L -1191.99,143.4 C -1183.51,142.135 -1175.89,138.26 -1171.17,131.024 C -1168.81,127.396 -1167.29,123.026 -1165.57,117.278 L -1159.43,96.883 L -1163.07,91.03 C -1168.9,83.262 -1175.3,76.14 -1182.14,69.784 C -1196.78,56.189 -1213.28,46.373 -1231.05,37.49 L -1243.03,31.76 Z M -1235.93,84.213 L -1235.93,100.201 C -1233.8,101.093 -1231.8,102.413 -1230.05,104.156 C -1222.86,111.353 -1222.86,123.03 -1230.05,130.232 C -1237.26,137.43 -1248.93,137.43 -1256.13,130.232 C -1263.32,123.03 -1263.32,111.353 -1256.13,104.156 C -1254.4,102.413 -1252.39,101.093 -1250.25,100.201 L -1250.25,84.213 C -1250.25,80.568 -1247.29,77.607 -1243.65,77.607 L -1242.54,77.607 C -1238.9,77.607 -1235.93,80.568 -1235.93,84.213 Z M -1336.23,112.33 L -1338.42,115.837 C -1347.51,133.651 -1353.67,153.472 -1355.74,174.215 C -1356.41,180.859 -1356.34,188.145 -1356.44,195.728 C -1356.6,208.154 -1356.69,220.598 -1356.71,233.041 L -1356.8,261.668 L -1356.83,270.24 L -1356.83,270.656 L -1269.76,295.814 L -1249.12,301.717 C -1247.68,302.136 -1246.33,302.581 -1245.15,302.957 L -1243.1,303.523 L -1242.3,303.276 L -1236.58,301.642 L -1213.99,295.147 L -1129.2,270.663 L -1129.2,270.286 L -1129.24,261.769 L -1129.32,232.973 C -1129.34,220.598 -1129.43,208.238 -1129.59,195.888 C -1129.69,188.342 -1129.62,180.943 -1130.28,174.32 C -1132.31,153.668 -1138.44,133.886 -1147.48,116.088 L -1149.74,112.455 L -1148.08,116.18 C -1144.1,125.154 -1139.86,134.795 -1136.86,145.181 C -1125.97,182.87 -1131.07,227.251 -1130.18,262.775 L -1130,270.14 L -1137.11,272.033 C -1146.83,274.618 -1156.52,277.295 -1166.19,280.069 L -1216.54,294.503 C -1224.27,296.74 -1232.5,299.274 -1240.6,301.441 L -1243.1,302.111 L -1318.06,280.568 C -1328.53,277.602 -1338.58,274.581 -1348.76,272.063 L -1356.02,270.274 L -1355.85,262.8 C -1355.08,227.348 -1359.95,183.159 -1349.32,145.708 C -1346.31,135.121 -1342,125.31 -1337.93,116.164 L -1336.23,112.33 Z" fill="#ffffff" marker-start="none" marker-end="none" mask="url(#TranspMask_4)"/>
    </g>
    <path d="M -1329.81,175.887 C -1336.91,182.996 -1336.91,194.525 -1329.81,201.636 C -1328.85,202.595 -1327.81,203.42 -1326.71,204.124 C -1327.21,223.723 -1327.17,243.553 -1327.07,250.143 L -1241.87,274.467 L -1156.67,250.143 C -1156.58,243.57 -1156.53,223.828 -1157.02,204.262 C -1155.84,203.534 -1154.72,202.654 -1153.7,201.636 C -1146.6,194.525 -1146.6,182.996 -1153.7,175.887 C -1160.81,168.785 -1172.35,168.785 -1179.45,175.887 C -1186.55,182.996 -1186.55,194.525 -1179.45,201.636 C -1178.43,202.654 -1177.32,203.529 -1176.15,204.254 C -1176.08,213.979 -1176.21,223.723 -1176.06,233.808 L -1232.16,250.864 L -1232.15,199.064 C -1232.39,199.106 -1232.62,199.143 -1232.85,199.172 C -1233.79,199.306 -1234.7,199.415 -1235.62,199.503 C -1236.56,199.592 -1237.5,199.654 -1238.42,199.7 C -1239.33,199.738 -1240.27,199.759 -1241.22,199.755 C -1242.14,199.755 -1243.07,199.725 -1244,199.679 C -1244.93,199.637 -1245.88,199.566 -1246.8,199.465 C -1247.73,199.373 -1248.64,199.26 -1249.54,199.127 C -1250.48,198.988 -1251.41,198.829 -1252.32,198.644 C -1253.22,198.464 -1254.14,198.259 -1255.05,198.028 C -1255.08,198.02 -1255.12,198.007 -1255.14,198.004 L -1255.14,249.82 L -1307.67,233.808 C -1307.53,223.76 -1307.67,214.075 -1307.59,204.396 C -1306.34,203.643 -1305.14,202.725 -1304.06,201.636 C -1296.95,194.525 -1296.95,182.996 -1304.06,175.887 C -1311.16,168.785 -1322.7,168.785 -1329.81,175.887 Z M -1310.03,181.865 C -1306.23,185.669 -1306.23,191.861 -1310.03,195.662 C -1313.84,199.474 -1320.02,199.474 -1323.83,195.662 C -1327.64,191.861 -1327.64,185.669 -1323.83,181.865 C -1320.02,178.052 -1313.84,178.052 -1310.03,181.865 Z M -1159.68,181.865 C -1155.86,185.669 -1155.86,191.861 -1159.68,195.662 C -1163.48,199.474 -1169.67,199.474 -1173.48,195.662 C -1177.29,191.861 -1177.29,185.669 -1173.48,181.865 C -1169.67,178.052 -1163.48,178.052 -1159.68,181.865 Z" marker-start="none" marker-end="none" fill="url(#LinearGradient_9)"/>
    <mask id="TranspMask_5">
     <rect x="-10%" y="-10%" width="120%" height="120%" fill="url(#LinearGradient_10)" stroke="none"/>
    </mask>
    <path d="M -1243.03,31.76 L -1254.79,37.399 C -1272.49,46.235 -1288.95,55.976 -1303.55,69.483 C -1310.43,75.842 -1316.88,82.977 -1322.74,90.741 L -1326.63,96.975 L -1320.47,117.244 C -1316.72,129.554 -1313.59,135.155 -1305.61,139.592 C -1302.04,141.581 -1298.09,142.914 -1294.53,143.325 L -1288.31,144.045 L -1286.61,150.07 C -1283.17,162.232 -1275.33,171.855 -1265.93,177.428 C -1258.89,181.592 -1251.13,183.503 -1243.1,183.557 C -1233.47,183.377 -1224.5,180.499 -1216.15,174.374 C -1213.09,172.136 -1210.53,169.862 -1208.29,167.121 C -1204.62,162.635 -1201.35,156.296 -1199.59,150.082 L -1197.94,144.292 L -1191.99,143.4 C -1183.51,142.135 -1175.89,138.26 -1171.17,131.024 C -1168.81,127.396 -1167.29,123.026 -1165.57,117.278 L -1159.43,96.883 L -1163.07,91.03 C -1168.9,83.262 -1175.3,76.14 -1182.14,69.784 C -1196.78,56.189 -1213.28,46.373 -1231.05,37.49 L -1243.03,31.76 Z M -1235.93,84.213 L -1235.93,100.201 C -1233.8,101.093 -1231.8,102.413 -1230.05,104.156 C -1222.86,111.353 -1222.86,123.03 -1230.05,130.232 C -1237.26,137.43 -1248.93,137.43 -1256.13,130.232 C -1263.32,123.03 -1263.32,111.353 -1256.13,104.156 C -1254.4,102.413 -1252.39,101.093 -1250.25,100.201 L -1250.25,84.213 C -1250.25,80.568 -1247.29,77.607 -1243.65,77.607 L -1242.54,77.607 C -1238.9,77.607 -1235.93,80.568 -1235.93,84.213 Z M -1336.23,112.33 L -1338.42,115.837 C -1340.44,119.804 -1342.32,123.876 -1344.04,128.033 L -1344.01,128.096 L -1343.44,128.959 C -1341.66,124.551 -1339.77,120.29 -1337.93,116.164 L -1336.23,112.33 Z M -1149.74,112.455 L -1148.08,116.18 C -1145.83,121.275 -1143.48,126.587 -1141.33,132.126 L -1141.42,132.117 L -1140.31,132.222 C -1142.43,126.692 -1144.83,121.304 -1147.48,116.088 L -1149.74,112.455 Z" fill="#ffffff" marker-start="none" marker-end="none" mask="url(#TranspMask_5)"/>
    <mask id="TranspMask_6">
     <rect x="-10%" y="-10%" width="120%" height="120%" fill="url(#LinearGradient_11)" stroke="none"/>
    </mask>
    <path d="M -1243.03,27.897 L -1256.36,34.278 C -1274.18,43.176 -1290.97,53.093 -1305.92,66.915 C -1334.04,92.906 -1354.98,131.481 -1359.21,173.862 C -1359.9,180.713 -1359.83,188.221 -1359.94,195.674 C -1360.09,208.126 -1360.18,220.572 -1360.2,233.036 L -1360.29,261.661 L -1360.32,270.249 L -1360.39,273.257 L -1270.71,299.161 L -1250.09,305.073 L -1245.79,306.409 L -1243.02,307.113 L -1241.34,306.627 L -1235.61,304.99 L -1213.02,298.495 L -1125.64,273.265 L -1125.72,270.286 L -1125.75,261.757 L -1125.83,232.966 C -1125.85,220.581 -1125.94,208.21 -1126.1,195.837 C -1126.2,188.417 -1126.13,180.792 -1126.81,173.976 C -1130.96,131.77 -1151.83,93.187 -1179.77,67.233 C -1194.76,53.311 -1211.59,43.319 -1229.48,34.383 L -1243.03,27.897 Z M -1230.08,84.213 L -1230.08,97.171 L -1226.06,99.882 L -1225.92,100.017 C -1216.45,109.502 -1216.45,124.882 -1225.92,134.363 C -1235.4,143.839 -1250.78,143.839 -1260.27,134.363 C -1269.74,124.882 -1269.74,109.502 -1260.27,100.017 L -1260.13,99.882 L -1256.11,97.171 L -1256.1,84.205 C -1256.1,77.33 -1250.52,71.757 -1243.65,71.757 L -1242.54,71.757 C -1235.68,71.757 -1230.08,77.321 -1230.08,84.213 Z M -1157.67,103.172 L -1151.28,117.592 C -1147.28,126.596 -1143.14,136.018 -1140.21,146.14 C -1129.49,183.264 -1134.58,226.572 -1133.67,262.859 L -1133.55,267.471 L -1138.01,268.656 C -1147.75,271.254 -1157.46,273.932 -1167.16,276.713 L -1217.51,291.151 C -1225.32,293.409 -1233.45,295.919 -1241.5,298.063 L -1243.07,298.491 L -1317.1,277.212 C -1327.52,274.254 -1337.67,271.221 -1347.93,268.682 L -1352.46,267.551 L -1352.37,262.875 C -1351.58,226.694 -1356.44,183.536 -1345.96,146.664 C -1343.04,136.349 -1338.82,126.738 -1334.75,117.576 L -1328.38,103.259 L -1323.81,118.254 C -1319.98,130.847 -1316.49,137.539 -1307.31,142.641 C -1303.39,144.816 -1299.01,146.32 -1294.93,146.79 L -1291.03,147.238 L -1289.96,151.013 C -1286.29,164.051 -1277.89,174.403 -1267.71,180.424 C -1260.08,184.949 -1251.69,186.984 -1243.08,187.043 C -1232.7,186.854 -1223.03,183.738 -1214.09,177.189 C -1210.87,174.831 -1208.07,172.355 -1205.59,169.325 C -1201.59,164.44 -1198.12,157.666 -1196.24,151.038 L -1195.21,147.406 L -1191.47,146.844 C -1182.3,145.478 -1173.65,141.218 -1168.24,132.93 C -1165.58,128.833 -1163.95,124.022 -1162.22,118.279 L -1157.67,103.172 Z" fill="#ffffff" marker-start="none" marker-end="none" mask="url(#TranspMask_6)"/>
    <mask id="TranspMask_7">
     <rect x="-10%" y="-10%" width="120%" height="120%" fill="url(#LinearGradient_12)" stroke="none"/>
    </mask>
    <path d="M -1243.03,27.897 L -1256.36,34.278 C -1274.18,43.176 -1290.97,53.093 -1305.92,66.915 C -1334.04,92.906 -1354.98,131.481 -1359.21,173.862 C -1359.9,180.713 -1359.83,188.221 -1359.94,195.674 C -1360.09,208.126 -1360.18,220.572 -1360.2,233.036 L -1360.29,261.661 L -1360.32,270.249 L -1360.39,273.257 L -1270.71,299.161 L -1250.09,305.073 L -1245.79,306.409 L -1243.02,307.113 L -1241.34,306.627 L -1235.61,304.99 L -1213.02,298.495 L -1125.64,273.265 L -1125.72,270.286 L -1125.75,261.757 L -1125.83,232.966 C -1125.85,220.581 -1125.94,208.21 -1126.1,195.837 C -1126.2,188.417 -1126.13,180.792 -1126.81,173.976 C -1130.96,131.77 -1151.83,93.187 -1179.77,67.233 C -1194.76,53.311 -1211.59,43.319 -1229.48,34.383 L -1243.03,27.897 Z M -1230.08,84.213 L -1230.08,97.171 L -1226.06,99.882 L -1225.92,100.017 C -1216.45,109.502 -1216.45,124.882 -1225.92,134.363 C -1235.4,143.839 -1250.78,143.839 -1260.27,134.363 C -1269.74,124.882 -1269.74,109.502 -1260.27,100.017 L -1260.13,99.882 L -1256.11,97.171 L -1256.1,84.205 C -1256.1,77.33 -1250.52,71.757 -1243.65,71.757 L -1242.54,71.757 C -1235.68,71.757 -1230.08,77.321 -1230.08,84.213 Z M -1157.67,103.172 L -1151.28,117.592 C -1147.28,126.596 -1143.14,136.018 -1140.21,146.14 C -1129.49,183.264 -1134.58,226.572 -1133.67,262.859 L -1133.55,267.471 L -1138.01,268.656 C -1147.75,271.254 -1157.46,273.932 -1167.16,276.713 L -1217.51,291.151 C -1225.32,293.409 -1233.45,295.919 -1241.5,298.063 L -1243.07,298.491 L -1317.1,277.212 C -1327.52,274.254 -1337.67,271.221 -1347.93,268.682 L -1352.46,267.551 L -1352.37,262.875 C -1351.58,226.694 -1356.44,183.536 -1345.96,146.664 C -1343.04,136.349 -1338.82,126.738 -1334.75,117.576 L -1328.38,103.259 L -1323.81,118.254 C -1319.98,130.847 -1316.49,137.539 -1307.31,142.641 C -1303.39,144.816 -1299.01,146.32 -1294.93,146.79 L -1291.03,147.238 L -1289.96,151.013 C -1286.29,164.051 -1277.89,174.403 -1267.71,180.424 C -1260.08,184.949 -1251.69,186.984 -1243.08,187.043 C -1232.7,186.854 -1223.03,183.738 -1214.09,177.189 C -1210.87,174.831 -1208.07,172.355 -1205.59,169.325 C -1201.59,164.44 -1198.12,157.666 -1196.24,151.038 L -1195.21,147.406 L -1191.47,146.844 C -1182.3,145.478 -1173.65,141.218 -1168.24,132.93 C -1165.58,128.833 -1163.95,124.022 -1162.22,118.279 L -1157.67,103.172 Z" fill="#ffffff" marker-start="none" marker-end="none" mask="url(#TranspMask_7)"/>
   </g>
  </g>
 </g>
 <g id="MouseOff" transform="scale(1 -1)"/>
</svg>
